<?xml version="1.0" standalone="no"?>
<!DOCTYPE svg PUBLIC "-//W3C//DTD SVG 20010904//EN"
 "http://www.w3.org/TR/2001/REC-SVG-20010904/DTD/svg10.dtd">
<svg version="1.0" xmlns="http://www.w3.org/2000/svg"
 width="700.000000pt" height="700.000000pt" viewBox="0 0 700.000000 700.000000"
 preserveAspectRatio="xMidYMid meet">
<metadata>
Created by potrace 1.14, written by Peter Selinger 2001-2017
</metadata>
<g transform="translate(0.000000,700.000000) scale(0.100000,-0.100000)"
fill="#000000" stroke="none">
<path d="M3095 6738 c-467 -208 -527 -235 -945 -420 -173 -76 -335 -149 -360
-160 -25 -11 -106 -47 -180 -80 -74 -33 -153 -68 -175 -78 -22 -10 -183 -82
-358 -159 -175 -78 -331 -148 -346 -155 l-27 -15 2 -1053 c1 -579 4 -1071 7
-1094 3 -23 8 -70 12 -105 9 -91 15 -136 25 -199 5 -30 12 -73 16 -95 16 -108
92 -403 139 -540 145 -424 344 -801 607 -1153 40 -53 75 -99 78 -102 3 -3 18
-21 34 -40 247 -303 580 -594 916 -800 151 -93 153 -94 285 -159 199 -99 393
-173 588 -226 l88 -24 102 29 c872 247 1633 851 2132 1691 96 161 188 347 276
557 5 12 13 32 19 45 27 62 131 386 145 451 2 12 8 36 14 54 5 18 10 35 10 37
0 3 2 18 5 33 32 147 55 289 71 442 3 30 8 73 11 95 11 83 11 2155 0 2164 -6
4 -60 29 -121 56 -60 26 -135 59 -165 72 -30 14 -111 50 -179 80 -68 30 -152
67 -185 82 -34 16 -115 52 -181 81 -66 29 -145 64 -175 77 -30 14 -197 88
-370 165 -173 76 -335 148 -360 160 -25 11 -81 36 -125 55 -44 19 -113 50
-153 69 -41 19 -76 34 -78 34 -2 0 -37 15 -78 34 -41 19 -107 49 -147 66 -41
18 -94 41 -119 53 -182 82 -271 121 -310 136 l-45 18 -400 -179z m1485 -3235
c591 0 1080 -2 1086 -2 10 -1 5 -42 -31 -241 -3 -19 -20 -89 -36 -155 -17 -66
-35 -136 -40 -155 -18 -76 -109 -322 -164 -445 -84 -191 -190 -384 -297 -544
-56 -82 -191 -264 -217 -290 -9 -10 -31 -35 -49 -56 -87 -103 -270 -281 -387
-376 -182 -147 -362 -262 -561 -359 -111 -54 -349 -150 -374 -150 -7 0 -10
434 -10 1385 l0 1385 -1087 2 -1088 3 0 883 0 883 800 355 c440 196 822 365
849 377 27 12 155 69 285 127 l236 105 5 -1365 5 -1365 1075 -2z"/>
</g>
</svg>
